<svg width="20" height="20" viewBox="0 0 20 20" fill="none" xmlns="http://www.w3.org/2000/svg">
<path d="M18.6818 12.5341C18.1028 14.3754 16.8142 16.6575 14.2917 18.0101C12.7282 18.8484 11.0306 19.183 9.38314 19.0707L9.42568 0.942665C9.47777 0.938374 9.53005 0.934476 9.58253 0.930985C10.0681 0.927444 10.6665 0.949075 11.28 1.01878C11.5536 1.04987 11.8247 1.08996 12.0863 1.14006C12.6587 1.27564 13.2174 1.46628 13.754 1.70942C15.5103 2.50527 17.0281 3.86299 18.0099 5.6941C18.8203 7.20536 19.1598 8.8417 19.0803 10.4368C19.0472 10.9743 18.9268 11.7153 18.6818 12.5341ZM8.42537 1.07464L8.38343 18.9468C5.74393 18.4705 3.34092 16.8378 1.97576 14.2918C-0.398422 9.86407 1.2663 4.35002 5.694 1.97583C6.26708 1.66854 7.24635 1.28798 8.42537 1.07464Z" stroke="url(#paint0_linear_1_22)"/>
<defs>
<linearGradient id="paint0_linear_1_22" x1="0.755987" y1="8.72326" x2="20.9646" y2="9.99196" gradientUnits="userSpaceOnUse">
<stop offset="0.288448" stop-color="#555248"/>
<stop offset="0.780176" stop-color="#1B1A17" stop-opacity="0"/>
</linearGradient>
</defs>
</svg>
