<svg width="22" height="18" viewBox="0 0 22 18" fill="none" xmlns="http://www.w3.org/2000/svg">
<path d="M22 2.71584C21.191 3.05888 20.321 3.29073 19.4081 3.39518C20.3398 2.86126 21.0552 2.01621 21.3922 1.00948C20.5202 1.50384 19.5546 1.86243 18.526 2.05571C17.7032 1.21783 16.5301 0.694092 15.232 0.694092C12.7393 0.694092 10.7189 2.62466 10.7189 5.00622C10.7189 5.34432 10.7584 5.67355 10.8357 5.98896C7.0846 5.80936 3.75901 4.09207 1.53295 1.48339C1.14443 2.11999 0.921886 2.86064 0.921886 3.65106C0.921886 5.14735 1.71835 6.46702 2.92973 7.24063C2.18992 7.21853 1.49391 7.02446 0.885376 6.70124C0.88451 6.71941 0.884504 6.73733 0.884504 6.75536C0.884504 8.84508 2.44044 10.5876 4.50492 10.984C4.12653 11.0826 3.7279 11.1347 3.31624 11.1347C3.02512 11.1347 2.74286 11.1084 2.46681 11.0578C3.04153 12.7709 4.70801 14.0178 6.68334 14.0527C5.13742 15.2095 3.19166 15.8986 1.07697 15.8986C0.712916 15.8986 0.353368 15.8781 0 15.8385C1.99818 17.062 4.37022 17.7756 6.91929 17.7756C15.2207 17.7756 19.7597 11.205 19.7597 5.506C19.7597 5.31912 19.7552 5.13352 19.747 4.94859C20.6285 4.34011 21.3936 3.58082 21.999 2.71587" fill="#5C5C50"/>
</svg>
